<svg xmlns="http://www.w3.org/2000/svg" xmlns:xlink="http://www.w3.org/1999/xlink" version="1.1" x="0px" y="0px" width="85px" height="80px" viewBox="0 0 85 90" enable-background="new 0 0 100 100" xml:space="preserve"><path d="M24.039,23.587c0.003-1.653,1.349-2.996,3-2.996h0.004l17.917,0.026l0.016-10l-17.918-0.026H27.04  c-7.159,0-12.99,5.819-13.001,12.98L14.01,43.28l10,0.016L24.039,23.587z M75.163,21.541c0.566,0.567,0.877,1.321,0.876,2.122  L76.01,43.372l10,0.016l0.029-19.709c0.006-3.473-1.342-6.739-3.794-9.198c-2.452-2.46-5.715-3.816-9.187-3.821l-17.917-0.026  l-0.016,10l17.918,0.026C73.845,20.66,74.598,20.974,75.163,21.541z M75.961,76.414c-0.001,0.801-0.314,1.554-0.882,2.119  c-0.566,0.565-1.319,0.876-2.118,0.876h-0.004L55.04,79.383l-0.016,10l17.918,0.026h0.018c3.466,0,6.726-1.347,9.18-3.794  c2.46-2.452,3.816-5.715,3.821-9.187l0.029-19.541l-10-0.016L75.961,76.414z M24.837,78.459c-0.565-0.567-0.877-1.321-0.876-2.122  l0.029-19.541l-10-0.016l-0.029,19.542c-0.005,3.473,1.343,6.738,3.794,9.197c2.452,2.46,5.715,3.816,9.187,3.821l17.917,0.026  l0.016-10l-17.918-0.026C26.155,79.34,25.402,79.026,24.837,78.459z M12.253,47.944l-0.006,4l75.5,0.111l0.006-4L12.253,47.944z"/></svg>
