<svg xmlns="http://www.w3.org/2000/svg" x="0px" y="0px" viewBox="0 0 20 24"><g fill="none" fill-rule="evenodd"><rect width="24" height="24"/><path fill="#000" fill-rule="nonzero" d="M5.79260666 10.4264758C5.68800528 10.6820402 5.39603323 10.8044199 5.14046883 10.6998185 4.88490443 10.5952172 4.76252472 10.3032451 4.8671261 10.0476807 5.09595317 9.48860535 5.38985373 8.95928102 5.74179103 8.47062739 6.32790519 7.65618724 7.06759972 6.96356697 7.91682819 6.4350165 8.15127116 6.28910178 8.45961199 6.3608681 8.60552671 6.59531106 8.75144144 6.82975403 8.67967512 7.13809486 8.44523215 7.28400958 7.70700231 7.74347572 7.06347573 8.34604819 6.55335018 9.05489763 6.24716553 9.48002524 5.991575 9.94035195 5.79260666 10.4264758zM12.95415 19.5907457C13.2268454 19.5472504 13.4831686 19.7330538 13.5266638 20.0057492 13.5701591 20.2784446 13.3843557 20.5347678 13.1116603 20.578263 12.7209905 20.6405754 12.3227577 20.6719826 11.9195862 20.6719826 11.6262952 20.6719826 11.3351404 20.6552916 11.0470243 20.6221526 10.0481694 20.5074449 9.09161639 20.1961107 8.22273923 19.709872 7.98176404 19.5750181 7.89573573 19.2703484 8.03058962 19.0293733 8.16544351 18.7883981 8.47011317 18.7023698 8.71108836 18.8372237 9.46514116 19.2592047 10.2945976 19.5291721 11.1612021 19.6286923 11.4114761 19.6574787 11.6644798 19.6719826 11.9195862 19.6719826 12.2701339 19.6719826 12.6156985 19.6447291 12.95415 19.5907457zM17.1399055 8.85977417C16.9705821 8.64163618 17.0101541 8.32753663 17.2282921 8.15821318 17.4464301 7.98888974 17.7605296 8.02846175 17.9298531 8.24659974 18.2908387 8.71165455 18.5978914 9.21710658 18.8440639 9.75289169 19.2604785 10.6579408 19.4985821 11.6403577 19.5407845 12.6560382 19.5522485 12.9319425 19.3378773 13.1649005 19.061973 13.1763646 18.7860687 13.1878286 18.5531106 12.9734575 18.5416466 12.6975531 18.504874 11.8125518 18.2977536 10.9579714 17.9354981 10.1706334 17.7212453 9.70432037 17.4540629 9.26450051 17.1399055 8.85977417z"/><path fill="#000" fill-rule="nonzero" d="M15.0487112 5.79208696C15.0487112 3.97296056 13.5884486 2.5 11.7893147 2.5 9.99018073 2.5 8.5299181 3.97296056 8.5299181 5.79208696 8.5299181 7.61121335 9.99018073 9.08417391 11.7893147 9.08417391 13.5884486 9.08417391 15.0487112 7.61121335 15.0487112 5.79208696zM16.0487112 5.79208696C16.0487112 8.16156926 14.1426807 10.0841739 11.7893147 10.0841739 9.43594858 10.0841739 7.5299181 8.16156926 7.5299181 5.79208696 7.5299181 3.42260466 9.43594858 1.5 11.7893147 1.5 14.1426807 1.5 16.0487112 3.42260466 16.0487112 5.79208696zM21.488069 16.3798913C21.488069 14.5607649 20.0278063 13.0878043 18.2286724 13.0878043 16.4295385 13.0878043 14.9692759 14.5607649 14.9692759 16.3798913 14.9692759 18.1990177 16.4295385 19.6719783 18.2286724 19.6719783 20.0278063 19.6719783 21.488069 18.1990177 21.488069 16.3798913zM22.488069 16.3798913C22.488069 18.7493736 20.5820385 20.6719783 18.2286724 20.6719783 15.8753063 20.6719783 13.9692759 18.7493736 13.9692759 16.3798913 13.9692759 14.010409 15.8753063 12.0878043 18.2286724 12.0878043 20.5820385 12.0878043 22.488069 14.010409 22.488069 16.3798913zM9.0187931 16.642713C9.0187931 14.8235866 7.55853048 13.3506261 5.75939655 13.3506261 3.96026263 13.3506261 2.5 14.8235866 2.5 16.642713 2.5 18.4618394 3.96026263 19.9348 5.75939655 19.9348 7.55853048 19.9348 9.0187931 18.4618394 9.0187931 16.642713zM10.0187931 16.642713C10.0187931 19.0121953 8.11276263 20.9348 5.75939655 20.9348 3.40603048 20.9348 1.5 19.0121953 1.5 16.642713 1.5 14.2732307 3.40603048 12.3506261 5.75939655 12.3506261 8.11276263 12.3506261 10.0187931 14.2732307 10.0187931 16.642713z"/></g></svg>
