<svg xmlns="http://www.w3.org/2000/svg" xmlns:xlink="http://www.w3.org/1999/xlink" width="87" height="49" viewBox="0 0 87 49">
  <defs>
    <polygon id="eaa_logo-a" points="22.257 21.981 22.257 .553 .084 .553 .084 21.981 22.257 21.981"/>
  </defs>
  <g fill="none" fill-rule="evenodd">
    <rect width="87" height="49" fill="#FFF"/>
    <g transform="translate(12 15)">
      <path fill="#E5007D" d="M6.77308787,9.82720302 L14.378364,7.8375156 C13.8865439,5.92828732 12.6374644,5.01306464 10.9730879,5.01306464 C8.55145189,5.01306464 7.00026571,6.72365942 6.77308787,9.82720302 M16.6485481,14.0437647 L20.432454,17.6241963 C18.0482824,20.5676597 14.9076485,22 11.0480167,22 C4.42717783,22 0,17.6644259 0,11.1003012 C0,4.49594706 4.12427406,0.0405223297 10.6701841,0.000292761028 C16.8,-0.0390986916 20.847751,3.89920846 21,10.2638615 L7.30237237,13.7252806 C8.05963181,15.5951174 9.57255646,16.6695822 11.5398368,16.6695822 C13.3564623,16.6695822 15.1348263,15.7543595 16.6485481,14.0437647"/>
      <path fill="#E5332A" d="M33.049324,11.7948369 L33.049324,10.3651604 C32.7762,7.54596219 31.0576579,5.71892094 28.5592317,5.71892094 C25.825524,5.71892094 23.9901638,7.90317217 23.9901638,11.080417 C23.9901638,14.2568252 25.825524,16.4410764 28.5592317,16.4410764 C31.0576579,16.4410764 32.7762,14.5738804 33.049324,11.7948369 L33.049324,11.7948369 Z M40,0.23947033 L40,21.722263 L33.049324,21.722263 L33.049324,19.0218559 C31.6047285,20.9275335 29.4575792,22 26.8406896,22 C20.9051792,22 17,17.5528612 17,10.8813163 C17,4.32939919 20.8278489,0.00105148666 26.6457186,0.00105148666 C29.3399385,-0.0391032659 31.5652407,1.07268145 33.049324,3.01851383 L33.049324,0.23947033 L40,0.23947033 Z"/>
      <g transform="translate(38)">
        <mask id="eaa_logo-b" fill="#fff">
          <use xlink:href="#eaa_logo-a"/>
        </mask>
        <path fill="#E84E1B" d="M15.2889724,12.0599111 L15.2889724,10.6673926 C15.0256621,7.92146667 13.368869,6.14191111 10.9594207,6.14191111 C8.32473103,6.14191111 6.55531724,8.26939259 6.55531724,11.3640593 C6.55531724,14.4579111 8.32473103,16.5853926 10.9594207,16.5853926 C13.368869,16.5853926 15.0256621,14.7667259 15.2889724,12.0599111 L15.2889724,12.0599111 Z M22.2571793,0.786133333 L22.2571793,21.709763 L15.5562483,21.709763 L15.5562483,19.0795407 C14.1635586,20.9365037 12.0935586,21.9810963 9.57069655,21.9810963 C3.84845517,21.9810963 0.0843862069,17.6487259 0.0843862069,11.1505778 C0.0843862069,4.76976296 3.77311034,0.553911111 9.38273103,0.553911111 C11.9801448,0.5148 14.1254897,1.59768889 15.5562483,3.49294815 L15.5562483,0.786133333 L22.2571793,0.786133333 Z" mask="url(#eaa_logo-b)"/>
      </g>
    </g>
  </g>
</svg>
