<?xml version="1.0" encoding="UTF-8"?>
<svg width="866px" height="573px" viewBox="0 0 866 573" version="1.1" xmlns="http://www.w3.org/2000/svg" xmlns:xlink="http://www.w3.org/1999/xlink">
    <!-- Generator: Sketch 47.1 (45422) - http://www.bohemiancoding.com/sketch -->
    <title>Group 4</title>
    <desc>Created with Sketch.</desc>
    <defs></defs>
    <g id="APP-v2" stroke="none" stroke-width="1" fill="none" fill-rule="evenodd">
        <g id="lu_flash_screen" transform="translate(-144.000000, -328.000000)">
            <g id="Group-4" transform="translate(125.000000, 328.000000)">
                <polygon id="Star" fill="#000000" transform="translate(68.456276, 373.846086) rotate(-29.000000) translate(-68.456276, -373.846086) " points="68.456276 399.346086 39.0670134 415.105953 44.6798631 381.726019 20.9034502 358.086219 53.7616447 353.216153 68.456276 322.846086 83.1509073 353.216153 116.009102 358.086219 92.2326889 381.726019 97.8455386 415.105953"></polygon>
                <polygon id="Star" fill="#000000" transform="translate(131.120590, 118.806214) rotate(-16.000000) translate(-131.120590, -118.806214) " points="131.12059 144.306214 101.731327 160.066081 107.344177 126.686148 83.5677641 103.046348 116.425959 98.1762809 131.12059 67.8062143 145.815221 98.1762809 178.673416 103.046348 154.897003 126.686148 160.509853 160.066081"></polygon>
                <polygon id="Star" fill="#000000" transform="translate(573.114218, 390.847853) rotate(6.000000) translate(-573.114218, -390.847853) " points="573.114218 421.217919 543.724955 436.977786 549.337805 403.597853 525.561392 379.958052 558.419586 375.087986 573.114218 344.717919 587.808849 375.087986 620.667043 379.958052 596.89063 403.597853 602.50348 436.977786"></polygon>
                <polygon id="Star" fill="#000000" points="487.85371 114 444.063709 137.485292 452.426855 87.7426458 417 52.5147084 465.95871 45.2573542 487.85371 0 509.748711 45.2573542 558.707421 52.5147084 523.280566 87.7426458 531.643712 137.485292"></polygon>
                <polygon id="Star" stroke="#000000" stroke-width="6" transform="translate(805.780533, 137.384262) rotate(12.000000) translate(-805.780533, -137.384262) " points="805.780533 182.349926 762.448703 205.683851 770.724346 156.261804 735.66816 121.260916 784.114618 114.050336 805.780533 69.0846722 827.446448 114.050336 875.892907 121.260916 840.83672 156.261804 849.112363 205.683851"></polygon>
                <polygon id="Star" stroke="#000000" stroke-width="6" transform="translate(268.362575, 249.193829) rotate(-9.000000) translate(-268.362575, -249.193829) " points="268.362575 274.693829 238.973312 290.453695 244.586162 257.073762 220.809749 233.433962 253.667943 228.563895 268.362575 198.193829 283.057206 228.563895 315.915401 233.433962 292.138988 257.073762 297.751837 290.453695"></polygon>
                <path d="M107,435 L178.569201,571.541193" id="Path-4" stroke="#000000" stroke-width="5"></path>
                <path d="M150.5,167.5 L192.5,299.5" id="Path-4" stroke="#000000" stroke-width="5"></path>
                <path d="M283.545455,323.555882 L318.454545,511.444118" id="Path-4" stroke="#000000" stroke-width="5"></path>
                <path d="M489.545455,159.555882 L458.5,485.5" id="Path-4" stroke="#000000" stroke-width="5"></path>
                <path d="M564.392928,459 L555,538.986645" id="Path-5" stroke="#000000" stroke-width="4"></path>
                <path d="M782,251 L703,529.923611" id="Path-5" stroke="#000000" stroke-width="4"></path>
            </g>
        </g>
    </g>
</svg>