<svg xmlns="http://www.w3.org/2000/svg" xmlns:xlink="http://www.w3.org/1999/xlink" version="1.1" x="0px" y="0px" viewBox="0 0 100 125" style="enable-background:new 0 0 100 100;" xml:space="preserve"><g><path d="M82.56,41h-7.53c-0.95,0-1.83-0.55-2.21-1.42c-0.11-0.24-0.21-0.48-0.33-0.71c-0.44-0.92-0.24-2.02,0.48-2.74l5.05-5.05   c0.95-0.95,0.95-2.5,0-3.45l-7.87-7.87c-0.95-0.95-2.5-0.95-3.45,0l-5.53,5.53c-0.69,0.69-1.71,0.9-2.62,0.54   c-0.01,0-0.02-0.01-0.03-0.01C57.61,25.45,57,24.55,57,23.55v-7.11c0-1.35-1.09-2.44-2.44-2.44H43.44C42.09,14,41,15.09,41,16.44   v7.11c0,0.99-0.6,1.89-1.52,2.25c-0.18,0.07-0.36,0.14-0.53,0.22c-0.9,0.38-1.95,0.16-2.64-0.53l-5.03-5.03   c-0.95-0.95-2.5-0.95-3.45,0l-7.87,7.87c-0.95,0.95-0.95,2.5,0,3.45l4.83,4.83c0.72,0.72,0.91,1.8,0.49,2.72   c-0.03,0.08-0.07,0.15-0.1,0.23C24.8,40.44,23.93,41,22.97,41h-7.53C14.09,41,13,42.09,13,43.44v11.12c0,1.35,1.09,2.44,2.44,2.44   h6.74c1.04,0,1.95,0.66,2.3,1.64c0.11,0.31,0.23,0.63,0.35,0.93c0.36,0.9,0.15,1.93-0.54,2.62l-5.03,5.03   c-0.95,0.95-0.95,2.5,0,3.45l7.87,7.87c0.95,0.95,2.5,0.95,3.45,0l4.55-4.55c0.72-0.72,1.82-0.92,2.75-0.48   c0.53,0.25,1.06,0.48,1.6,0.7C40.4,74.56,41,75.46,41,76.45v6.11c0,1.35,1.09,2.44,2.44,2.44h11.12c1.35,0,2.44-1.09,2.44-2.44   v-6.11c0-1,0.61-1.89,1.54-2.26c0.38-0.15,0.76-0.31,1.13-0.48c0.92-0.42,2-0.22,2.72,0.49l4.33,4.33c0.95,0.95,2.5,0.95,3.45,0   l7.87-7.87c0.95-0.95,0.95-2.5,0-3.45l-4.53-4.53c-0.69-0.69-0.91-1.74-0.53-2.64c0.2-0.47,0.38-0.94,0.55-1.43   c0.34-0.97,1.26-1.62,2.29-1.62h6.74c1.35,0,2.44-1.09,2.44-2.44V43.44C85,42.09,83.91,41,82.56,41z M49,63.5   c-7.46,0-13.5-6.04-13.5-13.5c0-7.46,6.04-13.5,13.5-13.5S62.5,42.54,62.5,50C62.5,57.46,56.46,63.5,49,63.5z"/></g>a</svg>
