<?xml version="1.0" encoding="UTF-8"?>
<svg width="72px" height="82px" viewBox="0 0 72 82" version="1.1" xmlns="http://www.w3.org/2000/svg" xmlns:xlink="http://www.w3.org/1999/xlink">
    <!-- Generator: Sketch 47.1 (45422) - http://www.bohemiancoding.com/sketch -->
    <title>Group 12</title>
    <desc>Created with Sketch.</desc>
    <defs></defs>
    <g id="APP-v2" stroke="none" stroke-width="1" fill="none" fill-rule="evenodd">
        <g id="Group-12" transform="translate(-17.000000, -12.000000)">
            <path d="M52.8205128,91 C57.3333333,91 61.025641,87.3076923 61.025641,82.7948718 L44.6153846,82.7948718 C44.6153846,87.3076923 48.2666667,91 52.8205128,91 Z M77.4358974,70.3846154 L77.4358974,49.8717949 C77.4358974,37.2769231 70.7076923,26.7333333 58.974359,23.9435897 L58.974359,21.1538462 C58.974359,17.7487179 56.225641,15 52.8205128,15 C49.4153846,15 46.6666667,17.7487179 46.6666667,21.1538462 L46.6666667,23.9435897 C34.8923077,26.7333333 28.2051282,37.2358974 28.2051282,49.8717949 L28.2051282,70.3846154 L20,78.5897436 L20,82.6923077 L85.6410256,82.6923077 L85.6410256,78.5897436 L77.4358974,70.3846154 Z" id="Shape" stroke="#000000" stroke-width="5" fill="#000000" fill-rule="nonzero"></path>
            <rect id="Rectangle-8" x="0" y="0" width="105" height="105"></rect>
        </g>
    </g>
</svg>