<?xml version="1.0" encoding="UTF-8"?>
<svg width="250px" height="250px" viewBox="0 0 250 250" version="1.1" xmlns="http://www.w3.org/2000/svg" xmlns:xlink="http://www.w3.org/1999/xlink">
    <!-- Generator: Sketch 47.1 (45422) - http://www.bohemiancoding.com/sketch -->
    <title>Group 8</title>
    <desc>Created with Sketch.</desc>
    <defs></defs>
    <g id="APP-v2" stroke="none" stroke-width="1" fill="none" fill-rule="evenodd">
        <g id="lu_wallet_01" transform="translate(-104.000000, -142.000000)" fill-rule="nonzero">
            <g id="Group-8" transform="translate(104.000000, 142.000000)">
                <g id="THX-Logo-RGB-03">
                    <path d="M223.679577,200.880282 C239.876761,179.841549 249.559859,153.433099 249.559859,124.823944 C249.559859,55.8978873 193.661972,0 124.735915,0 C55.8098592,0 0,55.8978873 0,124.735915 C0,193.573944 55.8978873,249.471831 124.735915,249.471831 C152.200704,249.471831 177.640845,240.580986 198.239437,225.528169 L249.471831,248.503521 L223.679577,200.880282 Z" id="Shape" fill="#FFE505"></path>
                    <g id="Group" transform="translate(38.732394, 95.950704)" fill="#020203">
                        <polygon id="Shape" points="51.8485915 13.9964789 35.3873239 13.9964789 35.3873239 58.9788732 16.9014085 58.9788732 16.9014085 13.9964789 0.440140845 13.9964789 0.440140845 0.176056338 51.8485915 0.176056338"></polygon>
                        <polygon id="Shape" points="108.978873 0.176056338 108.978873 58.9788732 90.4929577 58.9788732 90.4929577 34.2429577 75.7042254 34.2429577 75.7042254 58.9788732 57.2183099 58.9788732 57.2183099 0.176056338 75.7042254 0.176056338 75.7042254 21.3028169 90.4929577 21.3028169 90.4929577 0.176056338"></polygon>
                        <polygon id="Shape" points="153.34507 58.9788732 142.429577 34.2429577 131.426056 58.9788732 113.116197 58.9788732 127.728873 28.9612676 114.348592 0.176056338 132.570423 0.176056338 142.429577 23.415493 152.200704 0.176056338 170.422535 0.176056338 157.042254 28.9612676 171.65493 58.9788732"></polygon>
                    </g>
                    <path d="M230.017606,15.1408451 C231.602113,15.1408451 233.010563,15.6690141 234.15493,16.8133803 C235.299296,17.9577465 235.827465,19.3661972 235.827465,20.9507042 C235.827465,22.6232394 235.299296,23.943662 234.15493,25.0880282 C233.010563,26.2323944 231.602113,26.7605634 230.017606,26.7605634 C228.34507,26.7605634 227.024648,26.2323944 225.880282,25.0880282 C224.735915,23.943662 224.207746,22.5352113 224.207746,20.9507042 C224.207746,19.3661972 224.735915,17.9577465 225.880282,16.8133803 C227.024648,15.7570423 228.34507,15.1408451 230.017606,15.1408451 Z M230.017606,25.8802817 C231.338028,25.8802817 232.482394,25.4401408 233.362676,24.471831 C234.242958,23.5035211 234.771127,22.3591549 234.771127,21.0387324 C234.771127,19.7183099 234.330986,18.5739437 233.362676,17.6056338 C232.394366,16.6373239 231.25,16.1971831 230.017606,16.1971831 C228.697183,16.1971831 227.552817,16.6373239 226.584507,17.6056338 C225.616197,18.5739437 225.176056,19.7183099 225.176056,21.0387324 C225.176056,22.3591549 225.616197,23.5035211 226.584507,24.471831 C227.552817,25.4401408 228.697183,25.8802817 230.017606,25.8802817 Z M231.426056,21.1267606 L231.426056,21.1267606 C231.954225,21.2147887 232.306338,21.5669014 232.482394,22.1830986 L233.18662,24.2077465 L231.690141,24.2077465 L231.073944,22.2711268 C230.897887,21.8309859 230.633803,21.6549296 230.193662,21.6549296 L228.785211,21.6549296 L228.785211,24.2077465 L227.376761,24.2077465 L227.376761,17.7816901 C227.992958,17.693662 228.873239,17.693662 230.193662,17.693662 C231.161972,17.693662 231.866197,17.8697183 232.306338,18.1338028 C232.746479,18.3978873 232.922535,18.9260563 232.922535,19.6302817 C232.922535,20.5105634 232.394366,21.0387324 231.426056,21.1267606 Z M228.785211,20.6866197 L230.193662,20.6866197 C230.721831,20.6866197 231.073944,20.5985915 231.25,20.4225352 C231.426056,20.334507 231.514085,20.0704225 231.514085,19.6302817 C231.514085,19.278169 231.426056,19.0140845 231.25,18.8380282 C231.073944,18.6619718 230.721831,18.6619718 230.193662,18.6619718 L228.785211,18.6619718 L228.785211,20.6866197 Z" id="Shape" fill="#020203"></path>
                </g>
                <g id="THX-Logo-RGB-03" transform="translate(38.000000, 15.000000)" fill="#020203">
                    <g id="Group" transform="translate(0.732394, 80.950704)">
                        <polygon id="Shape" points="51.8485915 13.9964789 35.3873239 13.9964789 35.3873239 58.9788732 16.9014085 58.9788732 16.9014085 13.9964789 0.440140845 13.9964789 0.440140845 0.176056338 51.8485915 0.176056338"></polygon>
                        <polygon id="Shape" points="108.978873 0.176056338 108.978873 58.9788732 90.4929577 58.9788732 90.4929577 34.2429577 75.7042254 34.2429577 75.7042254 58.9788732 57.2183099 58.9788732 57.2183099 0.176056338 75.7042254 0.176056338 75.7042254 21.3028169 90.4929577 21.3028169 90.4929577 0.176056338"></polygon>
                        <polygon id="Shape" points="153.34507 58.9788732 142.429577 34.2429577 131.426056 58.9788732 113.116197 58.9788732 127.728873 28.9612676 114.348592 0.176056338 132.570423 0.176056338 142.429577 23.415493 152.200704 0.176056338 170.422535 0.176056338 157.042254 28.9612676 171.65493 58.9788732"></polygon>
                    </g>
                    <path d="M192.017606,0.14084507 C193.602113,0.14084507 195.010563,0.669014085 196.15493,1.81338028 C197.299296,2.95774648 197.827465,4.36619718 197.827465,5.95070423 C197.827465,7.62323944 197.299296,8.94366197 196.15493,10.0880282 C195.010563,11.2323944 193.602113,11.7605634 192.017606,11.7605634 C190.34507,11.7605634 189.024648,11.2323944 187.880282,10.0880282 C186.735915,8.94366197 186.207746,7.53521127 186.207746,5.95070423 C186.207746,4.36619718 186.735915,2.95774648 187.880282,1.81338028 C189.024648,0.757042254 190.34507,0.14084507 192.017606,0.14084507 Z M192.017606,10.8802817 C193.338028,10.8802817 194.482394,10.4401408 195.362676,9.47183099 C196.242958,8.50352113 196.771127,7.35915493 196.771127,6.03873239 C196.771127,4.71830986 196.330986,3.57394366 195.362676,2.6056338 C194.394366,1.63732394 193.25,1.1971831 192.017606,1.1971831 C190.697183,1.1971831 189.552817,1.63732394 188.584507,2.6056338 C187.616197,3.57394366 187.176056,4.71830986 187.176056,6.03873239 C187.176056,7.35915493 187.616197,8.50352113 188.584507,9.47183099 C189.552817,10.4401408 190.697183,10.8802817 192.017606,10.8802817 Z M193.426056,6.12676056 L193.426056,6.12676056 C193.954225,6.21478873 194.306338,6.56690141 194.482394,7.18309859 L195.18662,9.20774648 L193.690141,9.20774648 L193.073944,7.27112676 C192.897887,6.83098592 192.633803,6.65492958 192.193662,6.65492958 L190.785211,6.65492958 L190.785211,9.20774648 L189.376761,9.20774648 L189.376761,2.78169014 C189.992958,2.69366197 190.873239,2.69366197 192.193662,2.69366197 C193.161972,2.69366197 193.866197,2.86971831 194.306338,3.13380282 C194.746479,3.39788732 194.922535,3.92605634 194.922535,4.63028169 C194.922535,5.51056338 194.394366,6.03873239 193.426056,6.12676056 Z M190.785211,5.68661972 L192.193662,5.68661972 C192.721831,5.68661972 193.073944,5.59859155 193.25,5.42253521 C193.426056,5.33450704 193.514085,5.07042254 193.514085,4.63028169 C193.514085,4.27816901 193.426056,4.01408451 193.25,3.83802817 C193.073944,3.66197183 192.721831,3.66197183 192.193662,3.66197183 L190.785211,3.66197183 L190.785211,5.68661972 Z" id="Shape"></path>
                </g>
            </g>
        </g>
    </g>
</svg>