<?xml version="1.0" encoding="UTF-8"?>
<svg width="90px" height="86px" viewBox="0 0 90 86" version="1.1" xmlns="http://www.w3.org/2000/svg" xmlns:xlink="http://www.w3.org/1999/xlink">
    <!-- Generator: Sketch 47.1 (45422) - http://www.bohemiancoding.com/sketch -->
    <title>Group 10</title>
    <desc>Created with Sketch.</desc>
    <defs></defs>
    <g id="APP-v2" stroke="none" stroke-width="1" fill="none" fill-rule="evenodd">
        <g id="Group-10" transform="translate(-7.000000, -10.000000)">
            <path d="M90,79.6666667 L90,84.1111111 C90,89 86,93 81.1111111,93 L18.8888889,93 C13.9555556,93 10,89 10,84.1111111 L10,21.8888889 C10,17 13.9555556,13 18.8888889,13 L81.1111111,13 C86,13 90,17 90,21.8888889 L90,26.3333333 L50,26.3333333 C45.0666667,26.3333333 41.1111111,30.3333333 41.1111111,35.2222222 L41.1111111,70.7777778 C41.1111111,75.6666667 45.0666667,79.6666667 50,79.6666667 L90,79.6666667 Z M50,70.7777778 L94.4444444,70.7777778 L94.4444444,35.2222222 L50,35.2222222 L50,70.7777778 Z M67.7777778,59.6666667 C64.0888889,59.6666667 61.1111111,56.6888889 61.1111111,53 C61.1111111,49.3111111 64.0888889,46.3333333 67.7777778,46.3333333 C71.4666667,46.3333333 74.4444444,49.3111111 74.4444444,53 C74.4444444,56.6888889 71.4666667,59.6666667 67.7777778,59.6666667 Z" id="Shape" stroke="#000000" stroke-width="5" fill-rule="nonzero"></path>
            <rect id="Rectangle-8" x="0" y="0" width="105" height="105"></rect>
        </g>
    </g>
</svg>